<svg height='100px' width='100px'  fill="#000000" xmlns="http://www.w3.org/2000/svg" viewBox="0 0 60 60" x="0px" y="0px">
<g data-name="Bot 33"><path d="M15,19a7,7,0,1,0,7,7A7,7,0,0,0,15,19Zm0,12a5,5,0,1,1,5-5A5,5,0,0,1,15,31Z"></path><path d="M45,33a7,7,0,1,0-7-7A7,7,0,0,0,45,33Zm0-12a5,5,0,1,1-5,5A5,5,0,0,1,45,21Z"></path><path d="M.34,17.33a2.5,2.5,0,0,0,2.42,1.85,2.53,2.53,0,0,0,.64-.08L4,18.94V40a2,2,0,0,0,2,2h6.42l1.8,3.12a3,3,0,0,0-.32,3.44l5.5,9.52A2.89,2.89,0,0,0,21,59.42a2.79,2.79,0,0,0,1.65.07A2,2,0,0,0,24,60H36a2,2,0,0,0,1.31-.5,3,3,0,0,0,.68.09,2.85,2.85,0,0,0,.94-.16,2.91,2.91,0,0,0,1.67-1.34l5.5-9.53a3,3,0,0,0-.32-3.44L47.58,42H54a2,2,0,0,0,2-2V18.94l.6.16a2.51,2.51,0,0,0,3.06-1.77l.26-1h0a2.52,2.52,0,0,0-1.77-3.06L35,7.08A2.51,2.51,0,0,0,31.9,8.85l-.26,1a2.5,2.5,0,0,0,1.77,3.05L41.33,15H18.67l7.91-2.12a2.5,2.5,0,0,0,1.77-3.06l-.26-1A2.5,2.5,0,0,0,25,7.08L1.84,13.3A2.52,2.52,0,0,0,.08,16.36ZM6,19.68V18.4L7.44,18l-.1.11c-.14.14-.28.28-.41.43l-.33.36c-.13.15-.25.31-.37.47S6.07,19.58,6,19.68ZM45,17a9,9,0,0,1,0,18,9,9,0,0,1-9-9A9,9,0,0,1,45,17ZM44,44.13a2.86,2.86,0,0,0-1.29,0,2.93,2.93,0,0,0-1.84,1.39L37,52.29A2,2,0,0,0,36,52H34V50a3,3,0,0,0-3-3V40h7a2,2,0,0,0,2-2V35.79A10.83,10.83,0,0,0,44,37v3a2,2,0,0,0,1.34,1.88ZM28,52V50a1,1,0,0,1,1-1h2a1,1,0,0,1,1,1v2Zm-4,0a2,2,0,0,0-1,.29L19.1,45.56a2.91,2.91,0,0,0-1.81-1.38A2.94,2.94,0,0,0,16,44.13l-1.3-2.25A2,2,0,0,0,16,40V37a10.83,10.83,0,0,0,4-1.16V38a2,2,0,0,0,2,2h7v7a3,3,0,0,0-3,3v2ZM22,38V36H38v2ZM34.8,21.91c-.05.13-.1.26-.14.39s-.17.51-.25.77-.08.28-.11.43-.11.56-.16.84c0,.13,0,.26-.06.39A11,11,0,0,0,34,26a11.24,11.24,0,0,0,.07,1.22c0,.13,0,.26.06.39s.08.54.14.8.08.3.12.45.13.47.21.7.11.3.17.46.18.44.28.65l.22.44c.11.21.23.42.36.62l.26.4c.14.21.29.41.45.61l.27.35c.2.23.41.45.63.67l.2.21,0,0H22.54l0,0,.19-.19c.22-.22.44-.45.64-.68l.26-.34c.16-.2.31-.41.46-.62l.25-.4c.13-.21.25-.41.36-.63l.22-.43c.1-.22.2-.44.28-.66s.12-.3.17-.45.15-.47.21-.71.08-.3.12-.45.1-.53.14-.8,0-.26.06-.39A11.24,11.24,0,0,0,26,26a11,11,0,0,0-.08-1.26c0-.13,0-.26-.06-.39,0-.28-.09-.56-.16-.84s-.07-.29-.11-.43-.16-.52-.25-.77-.09-.26-.14-.39l-.09-.22L30,20.05l4.89,1.63ZM24,26a9.2,9.2,0,0,1-.06,1.06A9,9,0,0,1,8.57,32.3,9,9,0,1,1,24,26ZM6,32.33c.09.13.19.25.29.37l.2.25c.21.26.43.51.66.74s.51.49.77.71l.28.22c.18.14.36.28.55.42l.34.22.53.33.38.2.55.26.39.17.58.21.4.13.62.16.38.09.72.11.31,0H14v3H6ZM21.14,57.09l-5.5-9.53a1,1,0,0,1,.85-1.49,1.13,1.13,0,0,1,.3,0,.92.92,0,0,1,.58.45l4.59,8,0,3.08a1.08,1.08,0,0,1-.33-.06A.93.93,0,0,1,21.14,57.09ZM24,58V54H36v4ZM44.36,47.56h0l-5.5,9.54a1,1,0,0,1-.56.44,1,1,0,0,1-.3.05v-3l4.64-8a1,1,0,0,1,.61-.46,1,1,0,0,1,.75.09,1,1,0,0,1,.37,1.36ZM54,32.33V40H46V37h.06l.31,0,.72-.11.38-.09.62-.16.4-.13.58-.21.39-.17.55-.26.38-.2.53-.33.34-.22c.19-.13.37-.27.55-.42l.28-.22c.27-.22.52-.46.77-.71s.46-.49.67-.75l.19-.24C53.81,32.58,53.91,32.46,54,32.33Zm0-12.65c-.07-.1-.16-.2-.24-.3s-.24-.32-.37-.47l-.33-.36c-.13-.15-.27-.29-.41-.43l-.1-.1L54,18.4Zm-20.37-9a.5.5,0,0,1-.05-.38l.26-1A.5.5,0,0,1,34.32,9l.13,0,23.17,6.21a.51.51,0,0,1,.36.62l-.26,1a.51.51,0,0,1-.61.35l-1.83-.49h0l-5-1.33L33.92,10.94A.48.48,0,0,1,33.63,10.72ZM38.68,17l-.22.17c-.22.17-.44.34-.65.52L37.5,18q-.29.27-.55.56l-.29.31c-.19.22-.37.45-.54.69l-.19.25-.07.1-5.54-1.85a1,1,0,0,0-.63,0L24.15,19.9l-.07-.1-.19-.25c-.17-.24-.35-.47-.54-.69l-.29-.31q-.27-.29-.55-.56l-.32-.29c-.21-.18-.43-.35-.65-.52L21.32,17ZM2.37,15.23,25.54,9l.13,0a.5.5,0,0,1,.49.37l.26,1a.5.5,0,0,1-.05.38.48.48,0,0,1-.29.23h0L9.59,15.37l-4.84,1.3h0l-1.83.49a.51.51,0,0,1-.62-.35l-.26-1A.5.5,0,0,1,2.37,15.23Z"></path><path d="M15,25h0a1,1,0,1,0,1,1A1,1,0,0,0,15,25Z"></path><path d="M45,27a1,1,0,0,0,0-2h0a1,1,0,0,0,0,2Z"></path></g></svg>